<svg width="195" height="314" viewBox="0 0 195 314" fill="none" xmlns="http://www.w3.org/2000/svg">
<path d="M3.25781 117.625L6.97656 126.906L10.6953 117.625H12.6406V129H11.1406V124.57L11.2812 119.789L7.54688 129H6.39844L2.67188 119.812L2.82031 124.57V129H1.32031V117.625H3.25781ZM20.2812 129C20.1979 128.833 20.1302 128.536 20.0781 128.109C19.4062 128.807 18.6042 129.156 17.6719 129.156C16.8385 129.156 16.1536 128.922 15.6172 128.453C15.0859 127.979 14.8203 127.38 14.8203 126.656C14.8203 125.776 15.1536 125.094 15.8203 124.609C16.4922 124.12 17.4349 123.875 18.6484 123.875H20.0547V123.211C20.0547 122.706 19.9036 122.305 19.6016 122.008C19.2995 121.706 18.8542 121.555 18.2656 121.555C17.75 121.555 17.3177 121.685 16.9688 121.945C16.6198 122.206 16.4453 122.521 16.4453 122.891H14.9922C14.9922 122.469 15.1406 122.062 15.4375 121.672C15.7396 121.276 16.1458 120.964 16.6562 120.734C17.1719 120.505 17.737 120.391 18.3516 120.391C19.3255 120.391 20.0885 120.635 20.6406 121.125C21.1927 121.609 21.4792 122.279 21.5 123.133V127.023C21.5 127.799 21.599 128.417 21.7969 128.875V129H20.2812ZM17.8828 127.898C18.3359 127.898 18.7656 127.781 19.1719 127.547C19.5781 127.312 19.8724 127.008 20.0547 126.633V124.898H18.9219C17.151 124.898 16.2656 125.417 16.2656 126.453C16.2656 126.906 16.4167 127.26 16.7188 127.516C17.0208 127.771 17.4089 127.898 17.8828 127.898ZM29.9219 121.719H27.0859V129H25.6406V121.719H22.8594V120.547H29.9219V121.719ZM34.2109 129.156C33.0651 129.156 32.1328 128.781 31.4141 128.031C30.6953 127.276 30.3359 126.268 30.3359 125.008V124.742C30.3359 123.904 30.4948 123.156 30.8125 122.5C31.1354 121.839 31.5833 121.323 32.1562 120.953C32.7344 120.578 33.3594 120.391 34.0312 120.391C35.1302 120.391 35.9844 120.753 36.5938 121.477C37.2031 122.201 37.5078 123.237 37.5078 124.586V125.188H31.7812C31.8021 126.021 32.0443 126.695 32.5078 127.211C32.9766 127.721 33.5703 127.977 34.2891 127.977C34.7995 127.977 35.2318 127.872 35.5859 127.664C35.9401 127.456 36.25 127.18 36.5156 126.836L37.3984 127.523C36.6901 128.612 35.6276 129.156 34.2109 129.156ZM34.0312 121.578C33.4479 121.578 32.9583 121.792 32.5625 122.219C32.1667 122.641 31.9219 123.234 31.8281 124H36.0625V123.891C36.0208 123.156 35.8229 122.589 35.4688 122.188C35.1146 121.781 34.6354 121.578 34.0312 121.578ZM46.3281 124.867C46.3281 126.154 46.0339 127.19 45.4453 127.977C44.8568 128.763 44.0599 129.156 43.0547 129.156C42.0286 129.156 41.2214 128.831 40.6328 128.18V132.25H39.1875V120.547H40.5078L40.5781 121.484C41.1667 120.755 41.9844 120.391 43.0312 120.391C44.0469 120.391 44.849 120.773 45.4375 121.539C46.0312 122.305 46.3281 123.37 46.3281 124.734V124.867ZM44.8828 124.703C44.8828 123.75 44.6797 122.997 44.2734 122.445C43.8672 121.893 43.3099 121.617 42.6016 121.617C41.7266 121.617 41.0703 122.005 40.6328 122.781V126.82C41.0651 127.591 41.7266 127.977 42.6172 127.977C43.3099 127.977 43.8594 127.703 44.2656 127.156C44.6771 126.604 44.8828 125.786 44.8828 124.703ZM53.6406 120.547H55.0859V129H53.6406V122.836L49.7422 129H48.2969V120.547H49.7422V126.719L53.6406 120.547ZM62.625 129C62.5417 128.833 62.474 128.536 62.4219 128.109C61.75 128.807 60.9479 129.156 60.0156 129.156C59.1823 129.156 58.4974 128.922 57.9609 128.453C57.4297 127.979 57.1641 127.38 57.1641 126.656C57.1641 125.776 57.4974 125.094 58.1641 124.609C58.8359 124.12 59.7786 123.875 60.9922 123.875H62.3984V123.211C62.3984 122.706 62.2474 122.305 61.9453 122.008C61.6432 121.706 61.1979 121.555 60.6094 121.555C60.0938 121.555 59.6615 121.685 59.3125 121.945C58.9635 122.206 58.7891 122.521 58.7891 122.891H57.3359C57.3359 122.469 57.4844 122.062 57.7812 121.672C58.0833 121.276 58.4896 120.964 59 120.734C59.5156 120.505 60.0807 120.391 60.6953 120.391C61.6693 120.391 62.4323 120.635 62.9844 121.125C63.5365 121.609 63.8229 122.279 63.8438 123.133V127.023C63.8438 127.799 63.9427 128.417 64.1406 128.875V129H62.625ZM60.2266 127.898C60.6797 127.898 61.1094 127.781 61.5156 127.547C61.9219 127.312 62.2161 127.008 62.3984 126.633V124.898H61.2656C59.4948 124.898 58.6094 125.417 58.6094 126.453C58.6094 126.906 58.7604 127.26 59.0625 127.516C59.3646 127.771 59.7526 127.898 60.2266 127.898ZM73.0391 120.547V129H71.5859V121.742H68.7109L68.5391 124.906C68.4453 126.359 68.2005 127.398 67.8047 128.023C67.4141 128.648 66.7917 128.974 65.9375 129H65.3594V127.727L65.7734 127.695C66.2422 127.643 66.5781 127.372 66.7812 126.883C66.9844 126.393 67.1146 125.487 67.1719 124.164L67.3281 120.547H73.0391ZM76.9375 123.461H79.1328C80.0911 123.471 80.849 123.721 81.4062 124.211C81.9635 124.701 82.2422 125.365 82.2422 126.203C82.2422 127.047 81.9557 127.724 81.3828 128.234C80.8099 128.745 80.0391 129 79.0703 129H75.4922V120.547H76.9375V123.461ZM85.2578 129H83.8047V120.547H85.2578V129ZM76.9375 124.641V127.82H79.0859C79.6276 127.82 80.0469 127.682 80.3438 127.406C80.6406 127.125 80.7891 126.742 80.7891 126.258C80.7891 125.789 80.6432 125.406 80.3516 125.109C80.0651 124.807 79.6615 124.651 79.1406 124.641H76.9375ZM98.6797 120.547V129H97.2266V121.742H94.3516L94.1797 124.906C94.0859 126.359 93.8411 127.398 93.4453 128.023C93.0547 128.648 92.4323 128.974 91.5781 129H91V127.727L91.4141 127.695C91.8828 127.643 92.2188 127.372 92.4219 126.883C92.625 126.393 92.7552 125.487 92.8125 124.164L92.9688 120.547H98.6797ZM103.766 126.883L105.734 120.547H107.281L103.883 130.305C103.357 131.711 102.521 132.414 101.375 132.414L101.102 132.391L100.562 132.289V131.117L100.953 131.148C101.443 131.148 101.823 131.049 102.094 130.852C102.37 130.654 102.596 130.292 102.773 129.766L103.094 128.906L100.078 120.547H101.656L103.766 126.883ZM114.961 129H113.508V125.938C112.872 126.104 112.221 126.188 111.555 126.188C110.497 126.188 109.69 125.917 109.133 125.375C108.581 124.833 108.299 124.062 108.289 123.062V120.539H109.734V123.109C109.76 124.37 110.367 125 111.555 125C112.221 125 112.872 124.917 113.508 124.75V120.547H114.961V129ZM118.859 120.547V127.82H121.953V120.547H123.398V127.82H126.484V120.547H127.938V129H117.406V120.547H118.859ZM135.688 120.547H137.133V129H135.688V122.836L131.789 129H130.344V120.547H131.789V126.719L135.688 120.547ZM142.289 123.633L144.164 120.547H145.852L143.086 124.727L145.938 129H144.266L142.312 125.836L140.359 129H138.68L141.531 124.727L138.766 120.547H140.438L142.289 123.633ZM4.80469 145.031C5.86719 145.031 6.71615 145.388 7.35156 146.102C7.99219 146.81 8.3125 147.745 8.3125 148.906V149.039C8.3125 149.836 8.15885 150.549 7.85156 151.18C7.54427 151.805 7.10156 152.292 6.52344 152.641C5.95052 152.984 5.28906 153.156 4.53906 153.156C3.40365 153.156 2.48958 152.779 1.79688 152.023C1.10417 151.263 0.757812 150.245 0.757812 148.969V148.266C0.757812 146.49 1.08594 145.078 1.74219 144.031C2.40365 142.984 3.3776 142.346 4.66406 142.117C5.39323 141.987 5.88542 141.828 6.14062 141.641C6.39583 141.453 6.52344 141.195 6.52344 140.867H7.71094C7.71094 141.518 7.5625 142.026 7.26562 142.391C6.97396 142.755 6.50521 143.013 5.85938 143.164L4.78125 143.406C3.92188 143.609 3.27604 143.953 2.84375 144.438C2.41667 144.917 2.13802 145.557 2.00781 146.359C2.77344 145.474 3.70573 145.031 4.80469 145.031ZM4.52344 146.219C3.8151 146.219 3.2526 146.458 2.83594 146.938C2.41927 147.411 2.21094 148.07 2.21094 148.914V149.039C2.21094 149.945 2.41927 150.664 2.83594 151.195C3.25781 151.721 3.82552 151.984 4.53906 151.984C5.25781 151.984 5.82552 151.719 6.24219 151.188C6.65885 150.656 6.86719 149.88 6.86719 148.859C6.86719 148.062 6.65625 147.424 6.23438 146.945C5.81771 146.461 5.2474 146.219 4.52344 146.219ZM16.9375 148.867C16.9375 150.154 16.6432 151.19 16.0547 151.977C15.4661 152.763 14.6693 153.156 13.6641 153.156C12.638 153.156 11.8307 152.831 11.2422 152.18V156.25H9.79688V144.547H11.1172L11.1875 145.484C11.776 144.755 12.5938 144.391 13.6406 144.391C14.6562 144.391 15.4583 144.773 16.0469 145.539C16.6406 146.305 16.9375 147.37 16.9375 148.734V148.867ZM15.4922 148.703C15.4922 147.75 15.2891 146.997 14.8828 146.445C14.4766 145.893 13.9193 145.617 13.2109 145.617C12.3359 145.617 11.6797 146.005 11.2422 146.781V150.82C11.6745 151.591 12.3359 151.977 13.2266 151.977C13.9193 151.977 14.4688 151.703 14.875 151.156C15.2865 150.604 15.4922 149.786 15.4922 148.703ZM22.2891 153.156C21.1432 153.156 20.2109 152.781 19.4922 152.031C18.7734 151.276 18.4141 150.268 18.4141 149.008V148.742C18.4141 147.904 18.5729 147.156 18.8906 146.5C19.2135 145.839 19.6615 145.323 20.2344 144.953C20.8125 144.578 21.4375 144.391 22.1094 144.391C23.2083 144.391 24.0625 144.753 24.6719 145.477C25.2812 146.201 25.5859 147.237 25.5859 148.586V149.188H19.8594C19.8802 150.021 20.1224 150.695 20.5859 151.211C21.0547 151.721 21.6484 151.977 22.3672 151.977C22.8776 151.977 23.3099 151.872 23.6641 151.664C24.0182 151.456 24.3281 151.18 24.5938 150.836L25.4766 151.523C24.7682 152.612 23.7057 153.156 22.2891 153.156ZM22.1094 145.578C21.526 145.578 21.0365 145.792 20.6406 146.219C20.2448 146.641 20 147.234 19.9062 148H24.1406V147.891C24.099 147.156 23.901 146.589 23.5469 146.188C23.1927 145.781 22.7135 145.578 22.1094 145.578ZM34.1719 153H32.7266V149.391H28.8438V153H27.3906V144.547H28.8438V148.211H32.7266V144.547H34.1719V153ZM36.4297 151.82L36.9297 151.203C37.4922 150.474 37.8125 149.38 37.8906 147.922L38.0234 144.547H43.4688V151.82H44.5547V155.484H43.1094V153H37.2109V155.484H35.7656L35.7734 151.82H36.4297ZM38.1406 151.82H42.0234V145.883H39.4219L39.3359 147.898C39.2474 149.581 38.849 150.888 38.1406 151.82ZM45.7734 148.695C45.7734 147.867 45.9349 147.122 46.2578 146.461C46.5859 145.799 47.0391 145.289 47.6172 144.93C48.2005 144.57 48.8646 144.391 49.6094 144.391C50.7604 144.391 51.6901 144.789 52.3984 145.586C53.112 146.383 53.4688 147.443 53.4688 148.766V148.867C53.4688 149.69 53.3099 150.43 52.9922 151.086C52.6797 151.737 52.2292 152.245 51.6406 152.609C51.0573 152.974 50.3854 153.156 49.625 153.156C48.4792 153.156 47.5495 152.758 46.8359 151.961C46.1276 151.164 45.7734 150.109 45.7734 148.797V148.695ZM47.2266 148.867C47.2266 149.805 47.4427 150.557 47.875 151.125C48.3125 151.693 48.8958 151.977 49.625 151.977C50.3594 151.977 50.9427 151.69 51.375 151.117C51.8073 150.539 52.0234 149.732 52.0234 148.695C52.0234 147.768 51.8021 147.018 51.3594 146.445C50.9219 145.867 50.3385 145.578 49.6094 145.578C48.8958 145.578 48.3203 145.862 47.8828 146.43C47.4453 146.997 47.2266 147.81 47.2266 148.867ZM55.4141 153V144.547H58.7109C59.8359 144.547 60.6979 144.745 61.2969 145.141C61.901 145.531 62.2031 146.107 62.2031 146.867C62.2031 147.258 62.0859 147.612 61.8516 147.93C61.6172 148.242 61.2708 148.482 60.8125 148.648C61.3229 148.768 61.7318 149.003 62.0391 149.352C62.3516 149.701 62.5078 150.117 62.5078 150.602C62.5078 151.378 62.2214 151.971 61.6484 152.383C61.0807 152.794 60.276 153 59.2344 153H55.4141ZM56.8594 149.289V151.836H59.25C59.8542 151.836 60.3047 151.724 60.6016 151.5C60.9036 151.276 61.0547 150.961 61.0547 150.555C61.0547 149.711 60.4349 149.289 59.1953 149.289H56.8594ZM56.8594 148.133H58.7266C60.0807 148.133 60.7578 147.737 60.7578 146.945C60.7578 146.154 60.1172 145.745 58.8359 145.719H56.8594V148.133Z" fill="black"/>
<path d="M9.83594 187H8.875V176.445H2.4375V187H1.47656V175.625H9.83594V187ZM12.0312 182.648C12.0312 181.836 12.1875 181.104 12.5 180.453C12.8177 179.802 13.263 179.297 13.8359 178.938C14.4141 178.573 15.0677 178.391 15.7969 178.391C16.9219 178.391 17.8333 178.786 18.5312 179.578C19.2292 180.365 19.5781 181.409 19.5781 182.711V182.906C19.5781 183.724 19.4193 184.461 19.1016 185.117C18.7891 185.768 18.3464 186.271 17.7734 186.625C17.2005 186.979 16.5469 187.156 15.8125 187.156C14.6927 187.156 13.7812 186.763 13.0781 185.977C12.3802 185.185 12.0312 184.138 12.0312 182.836V182.648ZM12.9688 182.906C12.9688 183.917 13.2292 184.747 13.75 185.398C14.276 186.044 14.9635 186.367 15.8125 186.367C16.6562 186.367 17.3385 186.044 17.8594 185.398C18.3854 184.747 18.6484 183.891 18.6484 182.828V182.648C18.6484 182.003 18.5286 181.411 18.2891 180.875C18.0495 180.339 17.7135 179.924 17.2812 179.633C16.849 179.336 16.3542 179.188 15.7969 179.188C14.9635 179.188 14.2839 179.516 13.7578 180.172C13.2318 180.823 12.9688 181.677 12.9688 182.734V182.906ZM20.7578 186.211L21.1719 185.672C21.8281 184.781 22.2057 183.479 22.3047 181.766L22.4531 178.547H27.4453V186.211H28.3203V189.484H27.3906V187H21.0391V189.484H20.1406L20.1484 186.211H20.7578ZM21.8359 186.211H26.5078V179.422H23.3438L23.2422 181.617C23.1484 183.633 22.6797 185.164 21.8359 186.211ZM33.5312 179.109C34.6042 179.109 35.474 179.461 36.1406 180.164C36.8073 180.862 37.1406 181.789 37.1406 182.945V183.148C37.1406 183.914 36.987 184.604 36.6797 185.219C36.3776 185.828 35.9401 186.305 35.3672 186.648C34.7995 186.987 34.1458 187.156 33.4062 187.156C32.2917 187.156 31.388 186.786 30.6953 186.047C30.0078 185.302 29.6641 184.31 29.6641 183.07V182.32C29.6641 180.57 29.9974 179.172 30.6641 178.125C31.3307 177.078 32.2786 176.453 33.5078 176.25C34.2839 176.125 34.8281 175.956 35.1406 175.742C35.4583 175.529 35.6172 175.237 35.6172 174.867H36.4219C36.4219 175.305 36.3307 175.667 36.1484 175.953C35.9661 176.24 35.6927 176.471 35.3281 176.648C34.9635 176.82 34.4062 176.966 33.6562 177.086C32.7969 177.221 32.1042 177.589 31.5781 178.188C31.0573 178.781 30.7188 179.578 30.5625 180.578C30.8958 180.141 31.3125 179.786 31.8125 179.516C32.3177 179.245 32.8906 179.109 33.5312 179.109ZM30.6016 182.953V183.148C30.6016 184.102 30.8594 184.878 31.375 185.477C31.8906 186.07 32.5677 186.367 33.4062 186.367C34.25 186.367 34.9271 186.068 35.4375 185.469C35.9479 184.865 36.2031 184.073 36.2031 183.094V182.891C36.2031 182.01 35.9427 181.292 35.4219 180.734C34.9062 180.177 34.2292 179.898 33.3906 179.898C32.5521 179.898 31.8776 180.182 31.3672 180.75C30.8568 181.312 30.6016 182.047 30.6016 182.953ZM38.4219 182.648C38.4219 181.836 38.5781 181.104 38.8906 180.453C39.2083 179.802 39.6536 179.297 40.2266 178.938C40.8047 178.573 41.4583 178.391 42.1875 178.391C43.3125 178.391 44.224 178.786 44.9219 179.578C45.6198 180.365 45.9688 181.409 45.9688 182.711V182.906C45.9688 183.724 45.8099 184.461 45.4922 185.117C45.1797 185.768 44.737 186.271 44.1641 186.625C43.5911 186.979 42.9375 187.156 42.2031 187.156C41.0833 187.156 40.1719 186.763 39.4688 185.977C38.7708 185.185 38.4219 184.138 38.4219 182.836V182.648ZM39.3594 182.906C39.3594 183.917 39.6198 184.747 40.1406 185.398C40.6667 186.044 41.3542 186.367 42.2031 186.367C43.0469 186.367 43.7292 186.044 44.25 185.398C44.776 184.747 45.0391 183.891 45.0391 182.828V182.648C45.0391 182.003 44.9193 181.411 44.6797 180.875C44.4401 180.339 44.1042 179.924 43.6719 179.633C43.2396 179.336 42.7448 179.188 42.1875 179.188C41.3542 179.188 40.6745 179.516 40.1484 180.172C39.6224 180.823 39.3594 181.677 39.3594 182.734V182.906ZM54.7031 182.859C54.7031 184.177 54.4115 185.224 53.8281 186C53.2448 186.771 52.4635 187.156 51.4844 187.156C50.3281 187.156 49.4427 186.75 48.8281 185.938V190.25H47.8984V178.547H48.7656L48.8125 179.742C49.4219 178.841 50.3047 178.391 51.4609 178.391C52.4714 178.391 53.263 178.773 53.8359 179.539C54.4141 180.305 54.7031 181.367 54.7031 182.727V182.859ZM53.7656 182.695C53.7656 181.617 53.5443 180.766 53.1016 180.141C52.6589 179.516 52.0417 179.203 51.25 179.203C50.6771 179.203 50.1849 179.341 49.7734 179.617C49.362 179.893 49.0469 180.294 48.8281 180.82V184.875C49.0521 185.359 49.3724 185.729 49.7891 185.984C50.2057 186.24 50.6979 186.367 51.2656 186.367C52.0521 186.367 52.6641 186.055 53.1016 185.43C53.5443 184.799 53.7656 183.888 53.7656 182.695ZM65.3516 185.734L68.7109 178.547H69.8672V187H68.9297V180.062L65.6797 187H65.0156L61.7031 179.906V187H60.7734V178.547H62L65.3516 185.734ZM77.7109 187C77.6172 186.734 77.5573 186.341 77.5312 185.82C77.2031 186.247 76.7839 186.578 76.2734 186.812C75.7682 187.042 75.2318 187.156 74.6641 187.156C73.8516 187.156 73.1927 186.93 72.6875 186.477C72.1875 186.023 71.9375 185.451 71.9375 184.758C71.9375 183.935 72.2786 183.284 72.9609 182.805C73.6484 182.326 74.6042 182.086 75.8281 182.086H77.5234V181.125C77.5234 180.521 77.3359 180.047 76.9609 179.703C76.5911 179.354 76.0495 179.18 75.3359 179.18C74.6849 179.18 74.1458 179.346 73.7188 179.68C73.2917 180.013 73.0781 180.414 73.0781 180.883L72.1406 180.875C72.1406 180.203 72.4531 179.622 73.0781 179.133C73.7031 178.638 74.4714 178.391 75.3828 178.391C76.3255 178.391 77.0677 178.628 77.6094 179.102C78.1562 179.57 78.4375 180.227 78.4531 181.07V185.07C78.4531 185.888 78.5391 186.5 78.7109 186.906V187H77.7109ZM74.7734 186.328C75.3984 186.328 75.9557 186.177 76.4453 185.875C76.9401 185.573 77.2995 185.169 77.5234 184.664V182.805H75.8516C74.9193 182.815 74.1901 182.987 73.6641 183.32C73.138 183.648 72.875 184.102 72.875 184.68C72.875 185.154 73.0495 185.547 73.3984 185.859C73.7526 186.172 74.2109 186.328 74.7734 186.328ZM86.8984 179.344H83.8203V187H82.8828V179.344H79.9219V178.547H86.8984V179.344ZM91.0859 187.156C90.3672 187.156 89.7161 186.979 89.1328 186.625C88.5547 186.271 88.1042 185.779 87.7812 185.148C87.4583 184.513 87.2969 183.802 87.2969 183.016V182.68C87.2969 181.867 87.4531 181.135 87.7656 180.484C88.0833 179.833 88.5234 179.323 89.0859 178.953C89.6484 178.578 90.2578 178.391 90.9141 178.391C91.9401 178.391 92.7526 178.742 93.3516 179.445C93.9557 180.143 94.2578 181.099 94.2578 182.312V182.836H88.2266V183.016C88.2266 183.974 88.5 184.773 89.0469 185.414C89.599 186.049 90.2917 186.367 91.125 186.367C91.625 186.367 92.0651 186.276 92.4453 186.094C92.8307 185.911 93.1797 185.62 93.4922 185.219L94.0781 185.664C93.3906 186.659 92.3932 187.156 91.0859 187.156ZM90.9141 179.188C90.2109 179.188 89.6172 179.445 89.1328 179.961C88.6536 180.477 88.362 181.169 88.2578 182.039H93.3281V181.938C93.3021 181.125 93.0703 180.464 92.6328 179.953C92.1953 179.443 91.6224 179.188 90.9141 179.188ZM102.875 182.859C102.875 184.177 102.583 185.224 102 186C101.417 186.771 100.635 187.156 99.6562 187.156C98.5 187.156 97.6146 186.75 97 185.938V190.25H96.0703V178.547H96.9375L96.9844 179.742C97.5938 178.841 98.4766 178.391 99.6328 178.391C100.643 178.391 101.435 178.773 102.008 179.539C102.586 180.305 102.875 181.367 102.875 182.727V182.859ZM101.938 182.695C101.938 181.617 101.716 180.766 101.273 180.141C100.831 179.516 100.214 179.203 99.4219 179.203C98.849 179.203 98.3568 179.341 97.9453 179.617C97.5339 179.893 97.2188 180.294 97 180.82V184.875C97.224 185.359 97.5443 185.729 97.9609 185.984C98.3776 186.24 98.8698 186.367 99.4375 186.367C100.224 186.367 100.836 186.055 101.273 185.43C101.716 184.799 101.938 183.888 101.938 182.695ZM110.508 178.547H111.445V187H110.508V180.055L105.945 187H105.016V178.547H105.945V185.5L110.508 178.547ZM119.289 187C119.195 186.734 119.135 186.341 119.109 185.82C118.781 186.247 118.362 186.578 117.852 186.812C117.346 187.042 116.81 187.156 116.242 187.156C115.43 187.156 114.771 186.93 114.266 186.477C113.766 186.023 113.516 185.451 113.516 184.758C113.516 183.935 113.857 183.284 114.539 182.805C115.227 182.326 116.182 182.086 117.406 182.086H119.102V181.125C119.102 180.521 118.914 180.047 118.539 179.703C118.169 179.354 117.628 179.18 116.914 179.18C116.263 179.18 115.724 179.346 115.297 179.68C114.87 180.013 114.656 180.414 114.656 180.883L113.719 180.875C113.719 180.203 114.031 179.622 114.656 179.133C115.281 178.638 116.049 178.391 116.961 178.391C117.904 178.391 118.646 178.628 119.188 179.102C119.734 179.57 120.016 180.227 120.031 181.07V185.07C120.031 185.888 120.117 186.5 120.289 186.906V187H119.289ZM116.352 186.328C116.977 186.328 117.534 186.177 118.023 185.875C118.518 185.573 118.878 185.169 119.102 184.664V182.805H117.43C116.497 182.815 115.768 182.987 115.242 183.32C114.716 183.648 114.453 184.102 114.453 184.68C114.453 185.154 114.628 185.547 114.977 185.859C115.331 186.172 115.789 186.328 116.352 186.328ZM129.031 178.547V187H128.094V179.352H124.633L124.484 182.516C124.422 183.688 124.305 184.583 124.133 185.203C123.961 185.818 123.706 186.271 123.367 186.562C123.029 186.854 122.578 187 122.016 187H121.656V186.172L121.945 186.156C122.482 186.146 122.867 185.885 123.102 185.375C123.336 184.865 123.49 183.953 123.562 182.641L123.734 178.547H129.031ZM131.031 182.648C131.031 181.836 131.188 181.104 131.5 180.453C131.818 179.802 132.263 179.297 132.836 178.938C133.414 178.573 134.068 178.391 134.797 178.391C135.922 178.391 136.833 178.786 137.531 179.578C138.229 180.365 138.578 181.409 138.578 182.711V182.906C138.578 183.724 138.419 184.461 138.102 185.117C137.789 185.768 137.346 186.271 136.773 186.625C136.201 186.979 135.547 187.156 134.812 187.156C133.693 187.156 132.781 186.763 132.078 185.977C131.38 185.185 131.031 184.138 131.031 182.836V182.648ZM131.969 182.906C131.969 183.917 132.229 184.747 132.75 185.398C133.276 186.044 133.964 186.367 134.812 186.367C135.656 186.367 136.339 186.044 136.859 185.398C137.385 184.747 137.648 183.891 137.648 182.828V182.648C137.648 182.003 137.529 181.411 137.289 180.875C137.049 180.339 136.714 179.924 136.281 179.633C135.849 179.336 135.354 179.188 134.797 179.188C133.964 179.188 133.284 179.516 132.758 180.172C132.232 180.823 131.969 181.677 131.969 182.734V182.906ZM140.617 187V178.547H143.719C144.792 178.547 145.615 178.74 146.188 179.125C146.76 179.505 147.047 180.065 147.047 180.805C147.047 181.227 146.919 181.604 146.664 181.938C146.409 182.266 146.036 182.505 145.547 182.656C146.099 182.76 146.542 182.997 146.875 183.367C147.214 183.737 147.383 184.167 147.383 184.656C147.383 185.401 147.107 185.979 146.555 186.391C146.008 186.797 145.232 187 144.227 187H140.617ZM141.547 183.109V186.219H144.258C144.961 186.219 145.503 186.083 145.883 185.812C146.263 185.542 146.453 185.151 146.453 184.641C146.453 184.172 146.263 183.799 145.883 183.523C145.503 183.247 144.961 183.109 144.258 183.109H141.547ZM141.547 182.328H143.914C145.383 182.307 146.117 181.807 146.117 180.828C146.117 180.312 145.914 179.938 145.508 179.703C145.107 179.464 144.51 179.344 143.719 179.344H141.547V182.328ZM4.625 203.109C5.69792 203.109 6.56771 203.461 7.23438 204.164C7.90104 204.862 8.23438 205.789 8.23438 206.945V207.148C8.23438 207.914 8.08073 208.604 7.77344 209.219C7.47135 209.828 7.03385 210.305 6.46094 210.648C5.89323 210.987 5.23958 211.156 4.5 211.156C3.38542 211.156 2.48177 210.786 1.78906 210.047C1.10156 209.302 0.757812 208.31 0.757812 207.07V206.32C0.757812 204.57 1.09115 203.172 1.75781 202.125C2.42448 201.078 3.3724 200.453 4.60156 200.25C5.3776 200.125 5.92188 199.956 6.23438 199.742C6.55208 199.529 6.71094 199.237 6.71094 198.867H7.51562C7.51562 199.305 7.42448 199.667 7.24219 199.953C7.0599 200.24 6.78646 200.471 6.42188 200.648C6.05729 200.82 5.5 200.966 4.75 201.086C3.89062 201.221 3.19792 201.589 2.67188 202.188C2.15104 202.781 1.8125 203.578 1.65625 204.578C1.98958 204.141 2.40625 203.786 2.90625 203.516C3.41146 203.245 3.98438 203.109 4.625 203.109ZM1.69531 206.953V207.148C1.69531 208.102 1.95312 208.878 2.46875 209.477C2.98438 210.07 3.66146 210.367 4.5 210.367C5.34375 210.367 6.02083 210.068 6.53125 209.469C7.04167 208.865 7.29688 208.073 7.29688 207.094V206.891C7.29688 206.01 7.03646 205.292 6.51562 204.734C6 204.177 5.32292 203.898 4.48438 203.898C3.64583 203.898 2.97135 204.182 2.46094 204.75C1.95052 205.312 1.69531 206.047 1.69531 206.953ZM13.3047 211.156C12.5859 211.156 11.9349 210.979 11.3516 210.625C10.7734 210.271 10.3229 209.779 10 209.148C9.67708 208.513 9.51562 207.802 9.51562 207.016V206.68C9.51562 205.867 9.67188 205.135 9.98438 204.484C10.3021 203.833 10.7422 203.323 11.3047 202.953C11.8672 202.578 12.4766 202.391 13.1328 202.391C14.1589 202.391 14.9714 202.742 15.5703 203.445C16.1745 204.143 16.4766 205.099 16.4766 206.312V206.836H10.4453V207.016C10.4453 207.974 10.7188 208.773 11.2656 209.414C11.8177 210.049 12.5104 210.367 13.3438 210.367C13.8438 210.367 14.2839 210.276 14.6641 210.094C15.0495 209.911 15.3984 209.62 15.7109 209.219L16.2969 209.664C15.6094 210.659 14.612 211.156 13.3047 211.156ZM13.1328 203.188C12.4297 203.188 11.8359 203.445 11.3516 203.961C10.8724 204.477 10.5807 205.169 10.4766 206.039H15.5469V205.938C15.5208 205.125 15.2891 204.464 14.8516 203.953C14.4141 203.443 13.8411 203.188 13.1328 203.188ZM25.0938 206.859C25.0938 208.177 24.8021 209.224 24.2188 210C23.6354 210.771 22.8542 211.156 21.875 211.156C20.7188 211.156 19.8333 210.75 19.2188 209.938V214.25H18.2891V202.547H19.1562L19.2031 203.742C19.8125 202.841 20.6953 202.391 21.8516 202.391C22.862 202.391 23.6536 202.773 24.2266 203.539C24.8047 204.305 25.0938 205.367 25.0938 206.727V206.859ZM24.1562 206.695C24.1562 205.617 23.9349 204.766 23.4922 204.141C23.0495 203.516 22.4323 203.203 21.6406 203.203C21.0677 203.203 20.5755 203.341 20.1641 203.617C19.7526 203.893 19.4375 204.294 19.2188 204.82V208.875C19.4427 209.359 19.763 209.729 20.1797 209.984C20.5964 210.24 21.0885 210.367 21.6562 210.367C22.4427 210.367 23.0547 210.055 23.4922 209.43C23.9349 208.799 24.1562 207.888 24.1562 206.695ZM30.4453 211.156C29.7266 211.156 29.0755 210.979 28.4922 210.625C27.9141 210.271 27.4635 209.779 27.1406 209.148C26.8177 208.513 26.6562 207.802 26.6562 207.016V206.68C26.6562 205.867 26.8125 205.135 27.125 204.484C27.4427 203.833 27.8828 203.323 28.4453 202.953C29.0078 202.578 29.6172 202.391 30.2734 202.391C31.2995 202.391 32.112 202.742 32.7109 203.445C33.3151 204.143 33.6172 205.099 33.6172 206.312V206.836H27.5859V207.016C27.5859 207.974 27.8594 208.773 28.4062 209.414C28.9583 210.049 29.651 210.367 30.4844 210.367C30.9844 210.367 31.4245 210.276 31.8047 210.094C32.1901 209.911 32.5391 209.62 32.8516 209.219L33.4375 209.664C32.75 210.659 31.7526 211.156 30.4453 211.156ZM30.2734 203.188C29.5703 203.188 28.9766 203.445 28.4922 203.961C28.013 204.477 27.7214 205.169 27.6172 206.039H32.6875V205.938C32.6615 205.125 32.4297 204.464 31.9922 203.953C31.5547 203.443 30.9818 203.188 30.2734 203.188ZM40.1172 209.734L43.4766 202.547H44.6328V211H43.6953V204.062L40.4453 211H39.7812L36.4688 203.906V211H35.5391V202.547H36.7656L40.1172 209.734ZM57.5234 211H56.5859V207.125H52.0312V211H51.0938V202.547H52.0312V206.336H56.5859V202.547H57.5234V211ZM65.3672 211C65.2734 210.734 65.2135 210.341 65.1875 209.82C64.8594 210.247 64.4401 210.578 63.9297 210.812C63.4245 211.042 62.888 211.156 62.3203 211.156C61.5078 211.156 60.849 210.93 60.3438 210.477C59.8438 210.023 59.5938 209.451 59.5938 208.758C59.5938 207.935 59.9349 207.284 60.6172 206.805C61.3047 206.326 62.2604 206.086 63.4844 206.086H65.1797V205.125C65.1797 204.521 64.9922 204.047 64.6172 203.703C64.2474 203.354 63.7057 203.18 62.9922 203.18C62.3411 203.18 61.8021 203.346 61.375 203.68C60.9479 204.013 60.7344 204.414 60.7344 204.883L59.7969 204.875C59.7969 204.203 60.1094 203.622 60.7344 203.133C61.3594 202.638 62.1276 202.391 63.0391 202.391C63.9818 202.391 64.724 202.628 65.2656 203.102C65.8125 203.57 66.0938 204.227 66.1094 205.07V209.07C66.1094 209.888 66.1953 210.5 66.3672 210.906V211H65.3672ZM62.4297 210.328C63.0547 210.328 63.612 210.177 64.1016 209.875C64.5964 209.573 64.9557 209.169 65.1797 208.664V206.805H63.5078C62.5755 206.815 61.8464 206.987 61.3203 207.32C60.7943 207.648 60.5312 208.102 60.5312 208.68C60.5312 209.154 60.7057 209.547 61.0547 209.859C61.4089 210.172 61.8672 210.328 62.4297 210.328ZM75.625 210.367C76.276 210.367 76.8203 210.185 77.2578 209.82C77.7005 209.451 77.9401 208.974 77.9766 208.391H78.875C78.849 208.906 78.6875 209.378 78.3906 209.805C78.0938 210.227 77.6979 210.557 77.2031 210.797C76.7135 211.036 76.1875 211.156 75.625 211.156C74.5156 211.156 73.6354 210.771 72.9844 210C72.3385 209.229 72.0156 208.193 72.0156 206.891V206.609C72.0156 205.776 72.1615 205.039 72.4531 204.398C72.7448 203.758 73.1615 203.263 73.7031 202.914C74.25 202.565 74.888 202.391 75.6172 202.391C76.5443 202.391 77.3073 202.667 77.9062 203.219C78.5104 203.771 78.8333 204.497 78.875 205.398H77.9766C77.9349 204.737 77.6953 204.203 77.2578 203.797C76.8255 203.391 76.2786 203.188 75.6172 203.188C74.7734 203.188 74.1172 203.492 73.6484 204.102C73.1849 204.711 72.9531 205.565 72.9531 206.664V206.938C72.9531 208.016 73.1849 208.857 73.6484 209.461C74.1172 210.065 74.776 210.367 75.625 210.367ZM84.0234 211.156C83.3047 211.156 82.6536 210.979 82.0703 210.625C81.4922 210.271 81.0417 209.779 80.7188 209.148C80.3958 208.513 80.2344 207.802 80.2344 207.016V206.68C80.2344 205.867 80.3906 205.135 80.7031 204.484C81.0208 203.833 81.4609 203.323 82.0234 202.953C82.5859 202.578 83.1953 202.391 83.8516 202.391C84.8776 202.391 85.6901 202.742 86.2891 203.445C86.8932 204.143 87.1953 205.099 87.1953 206.312V206.836H81.1641V207.016C81.1641 207.974 81.4375 208.773 81.9844 209.414C82.5365 210.049 83.2292 210.367 84.0625 210.367C84.5625 210.367 85.0026 210.276 85.3828 210.094C85.7682 209.911 86.1172 209.62 86.4297 209.219L87.0156 209.664C86.3281 210.659 85.3307 211.156 84.0234 211.156ZM83.8516 203.188C83.1484 203.188 82.5547 203.445 82.0703 203.961C81.5911 204.477 81.2995 205.169 81.1953 206.039H86.2656V205.938C86.2396 205.125 86.0078 204.464 85.5703 203.953C85.1328 203.443 84.5599 203.188 83.8516 203.188ZM92.4219 203.109C93.4948 203.109 94.3646 203.461 95.0312 204.164C95.6979 204.862 96.0312 205.789 96.0312 206.945V207.148C96.0312 207.914 95.8776 208.604 95.5703 209.219C95.2682 209.828 94.8307 210.305 94.2578 210.648C93.6901 210.987 93.0365 211.156 92.2969 211.156C91.1823 211.156 90.2786 210.786 89.5859 210.047C88.8984 209.302 88.5547 208.31 88.5547 207.07V206.32C88.5547 204.57 88.888 203.172 89.5547 202.125C90.2214 201.078 91.1693 200.453 92.3984 200.25C93.1745 200.125 93.7188 199.956 94.0312 199.742C94.349 199.529 94.5078 199.237 94.5078 198.867H95.3125C95.3125 199.305 95.2214 199.667 95.0391 199.953C94.8568 200.24 94.5833 200.471 94.2188 200.648C93.8542 200.82 93.2969 200.966 92.5469 201.086C91.6875 201.221 90.9948 201.589 90.4688 202.188C89.9479 202.781 89.6094 203.578 89.4531 204.578C89.7865 204.141 90.2031 203.786 90.7031 203.516C91.2083 203.245 91.7812 203.109 92.4219 203.109ZM89.4922 206.953V207.148C89.4922 208.102 89.75 208.878 90.2656 209.477C90.7812 210.07 91.4583 210.367 92.2969 210.367C93.1406 210.367 93.8177 210.068 94.3281 209.469C94.8385 208.865 95.0938 208.073 95.0938 207.094V206.891C95.0938 206.01 94.8333 205.292 94.3125 204.734C93.7969 204.177 93.1198 203.898 92.2812 203.898C91.4427 203.898 90.7682 204.182 90.2578 204.75C89.7474 205.312 89.4922 206.047 89.4922 206.953ZM103.992 202.547V211H103.055V207.594H100.43L98.3672 211H97.3359L99.4609 207.477C98.8828 207.326 98.4323 207.034 98.1094 206.602C97.7917 206.169 97.6328 205.659 97.6328 205.07C97.6328 204.305 97.9062 203.693 98.4531 203.234C99.0052 202.776 99.75 202.547 100.688 202.547H103.992ZM98.5703 205.086C98.5703 205.581 98.7266 205.987 99.0391 206.305C99.3568 206.622 99.7969 206.786 100.359 206.797H103.055V203.344H100.664C100.013 203.344 99.5 203.5 99.125 203.812C98.7552 204.125 98.5703 204.549 98.5703 205.086ZM106.43 210.438C106.43 210.255 106.487 210.102 106.602 209.977C106.721 209.846 106.885 209.781 107.094 209.781C107.302 209.781 107.466 209.846 107.586 209.977C107.706 210.102 107.766 210.255 107.766 210.438C107.766 210.62 107.706 210.771 107.586 210.891C107.466 211.005 107.302 211.062 107.094 211.062C106.885 211.062 106.721 211.005 106.602 210.891C106.487 210.771 106.43 210.62 106.43 210.438ZM115.414 206.367V211H114.453V199.625H118.328C119.51 199.625 120.443 199.927 121.125 200.531C121.812 201.135 122.156 201.966 122.156 203.023C122.156 204.091 121.826 204.917 121.164 205.5C120.508 206.078 119.555 206.367 118.305 206.367H115.414ZM115.414 205.555H118.328C119.26 205.555 119.971 205.333 120.461 204.891C120.951 204.448 121.195 203.831 121.195 203.039C121.195 202.253 120.951 201.628 120.461 201.164C119.977 200.695 119.286 200.456 118.391 200.445H115.414V205.555ZM129.336 211C129.242 210.734 129.182 210.341 129.156 209.82C128.828 210.247 128.409 210.578 127.898 210.812C127.393 211.042 126.857 211.156 126.289 211.156C125.477 211.156 124.818 210.93 124.312 210.477C123.812 210.023 123.562 209.451 123.562 208.758C123.562 207.935 123.904 207.284 124.586 206.805C125.273 206.326 126.229 206.086 127.453 206.086H129.148V205.125C129.148 204.521 128.961 204.047 128.586 203.703C128.216 203.354 127.674 203.18 126.961 203.18C126.31 203.18 125.771 203.346 125.344 203.68C124.917 204.013 124.703 204.414 124.703 204.883L123.766 204.875C123.766 204.203 124.078 203.622 124.703 203.133C125.328 202.638 126.096 202.391 127.008 202.391C127.951 202.391 128.693 202.628 129.234 203.102C129.781 203.57 130.062 204.227 130.078 205.07V209.07C130.078 209.888 130.164 210.5 130.336 210.906V211H129.336ZM126.398 210.328C127.023 210.328 127.581 210.177 128.07 209.875C128.565 209.573 128.924 209.169 129.148 208.664V206.805H127.477C126.544 206.815 125.815 206.987 125.289 207.32C124.763 207.648 124.5 208.102 124.5 208.68C124.5 209.154 124.674 209.547 125.023 209.859C125.378 210.172 125.836 210.328 126.398 210.328ZM135.984 203.109C137.057 203.109 137.927 203.461 138.594 204.164C139.26 204.862 139.594 205.789 139.594 206.945V207.148C139.594 207.914 139.44 208.604 139.133 209.219C138.831 209.828 138.393 210.305 137.82 210.648C137.253 210.987 136.599 211.156 135.859 211.156C134.745 211.156 133.841 210.786 133.148 210.047C132.461 209.302 132.117 208.31 132.117 207.07V206.32C132.117 204.57 132.451 203.172 133.117 202.125C133.784 201.078 134.732 200.453 135.961 200.25C136.737 200.125 137.281 199.956 137.594 199.742C137.911 199.529 138.07 199.237 138.07 198.867H138.875C138.875 199.305 138.784 199.667 138.602 199.953C138.419 200.24 138.146 200.471 137.781 200.648C137.417 200.82 136.859 200.966 136.109 201.086C135.25 201.221 134.557 201.589 134.031 202.188C133.51 202.781 133.172 203.578 133.016 204.578C133.349 204.141 133.766 203.786 134.266 203.516C134.771 203.245 135.344 203.109 135.984 203.109ZM133.055 206.953V207.148C133.055 208.102 133.312 208.878 133.828 209.477C134.344 210.07 135.021 210.367 135.859 210.367C136.703 210.367 137.38 210.068 137.891 209.469C138.401 208.865 138.656 208.073 138.656 207.094V206.891C138.656 206.01 138.396 205.292 137.875 204.734C137.359 204.177 136.682 203.898 135.844 203.898C135.005 203.898 134.331 204.182 133.82 204.75C133.31 205.312 133.055 206.047 133.055 206.953ZM140.875 206.648C140.875 205.836 141.031 205.104 141.344 204.453C141.661 203.802 142.107 203.297 142.68 202.938C143.258 202.573 143.911 202.391 144.641 202.391C145.766 202.391 146.677 202.786 147.375 203.578C148.073 204.365 148.422 205.409 148.422 206.711V206.906C148.422 207.724 148.263 208.461 147.945 209.117C147.633 209.768 147.19 210.271 146.617 210.625C146.044 210.979 145.391 211.156 144.656 211.156C143.536 211.156 142.625 210.763 141.922 209.977C141.224 209.185 140.875 208.138 140.875 206.836V206.648ZM141.812 206.906C141.812 207.917 142.073 208.747 142.594 209.398C143.12 210.044 143.807 210.367 144.656 210.367C145.5 210.367 146.182 210.044 146.703 209.398C147.229 208.747 147.492 207.891 147.492 206.828V206.648C147.492 206.003 147.372 205.411 147.133 204.875C146.893 204.339 146.557 203.924 146.125 203.633C145.693 203.336 145.198 203.188 144.641 203.188C143.807 203.188 143.128 203.516 142.602 204.172C142.076 204.823 141.812 205.677 141.812 206.734V206.906ZM156.258 203.344H153.18V211H152.242V203.344H149.281V202.547H156.258V203.344ZM163.008 211C162.914 210.734 162.854 210.341 162.828 209.82C162.5 210.247 162.081 210.578 161.57 210.812C161.065 211.042 160.529 211.156 159.961 211.156C159.148 211.156 158.49 210.93 157.984 210.477C157.484 210.023 157.234 209.451 157.234 208.758C157.234 207.935 157.576 207.284 158.258 206.805C158.945 206.326 159.901 206.086 161.125 206.086H162.82V205.125C162.82 204.521 162.633 204.047 162.258 203.703C161.888 203.354 161.346 203.18 160.633 203.18C159.982 203.18 159.443 203.346 159.016 203.68C158.589 204.013 158.375 204.414 158.375 204.883L157.438 204.875C157.438 204.203 157.75 203.622 158.375 203.133C159 202.638 159.768 202.391 160.68 202.391C161.622 202.391 162.365 202.628 162.906 203.102C163.453 203.57 163.734 204.227 163.75 205.07V209.07C163.75 209.888 163.836 210.5 164.008 210.906V211H163.008ZM160.07 210.328C160.695 210.328 161.253 210.177 161.742 209.875C162.237 209.573 162.596 209.169 162.82 208.664V206.805H161.148C160.216 206.815 159.487 206.987 158.961 207.32C158.435 207.648 158.172 208.102 158.172 208.68C158.172 209.154 158.346 209.547 158.695 209.859C159.049 210.172 159.508 210.328 160.07 210.328ZM169.523 211.156C168.805 211.156 168.154 210.979 167.57 210.625C166.992 210.271 166.542 209.779 166.219 209.148C165.896 208.513 165.734 207.802 165.734 207.016V206.68C165.734 205.867 165.891 205.135 166.203 204.484C166.521 203.833 166.961 203.323 167.523 202.953C168.086 202.578 168.695 202.391 169.352 202.391C170.378 202.391 171.19 202.742 171.789 203.445C172.393 204.143 172.695 205.099 172.695 206.312V206.836H166.664V207.016C166.664 207.974 166.938 208.773 167.484 209.414C168.036 210.049 168.729 210.367 169.562 210.367C170.062 210.367 170.503 210.276 170.883 210.094C171.268 209.911 171.617 209.62 171.93 209.219L172.516 209.664C171.828 210.659 170.831 211.156 169.523 211.156ZM169.352 203.188C168.648 203.188 168.055 203.445 167.57 203.961C167.091 204.477 166.799 205.169 166.695 206.039H171.766V205.938C171.74 205.125 171.508 204.464 171.07 203.953C170.633 203.443 170.06 203.188 169.352 203.188ZM179.195 209.734L182.555 202.547H183.711V211H182.773V204.062L179.523 211H178.859L175.547 203.906V211H174.617V202.547H175.844L179.195 209.734ZM4.34375 234.367C4.99479 234.367 5.53906 234.185 5.97656 233.82C6.41927 233.451 6.65885 232.974 6.69531 232.391H7.59375C7.56771 232.906 7.40625 233.378 7.10938 233.805C6.8125 234.227 6.41667 234.557 5.92188 234.797C5.43229 235.036 4.90625 235.156 4.34375 235.156C3.23438 235.156 2.35417 234.771 1.70312 234C1.05729 233.229 0.734375 232.193 0.734375 230.891V230.609C0.734375 229.776 0.880208 229.039 1.17188 228.398C1.46354 227.758 1.88021 227.263 2.42188 226.914C2.96875 226.565 3.60677 226.391 4.33594 226.391C5.26302 226.391 6.02604 226.667 6.625 227.219C7.22917 227.771 7.55208 228.497 7.59375 229.398H6.69531C6.65365 228.737 6.41406 228.203 5.97656 227.797C5.54427 227.391 4.9974 227.188 4.33594 227.188C3.49219 227.188 2.83594 227.492 2.36719 228.102C1.90365 228.711 1.67188 229.565 1.67188 230.664V230.938C1.67188 232.016 1.90365 232.857 2.36719 233.461C2.83594 234.065 3.49479 234.367 4.34375 234.367ZM19.4297 227.344H16.3516V235H15.4141V227.344H12.4531V226.547H19.4297V227.344ZM26.1797 235C26.0859 234.734 26.026 234.341 26 233.82C25.6719 234.247 25.2526 234.578 24.7422 234.812C24.237 235.042 23.7005 235.156 23.1328 235.156C22.3203 235.156 21.6615 234.93 21.1562 234.477C20.6562 234.023 20.4062 233.451 20.4062 232.758C20.4062 231.935 20.7474 231.284 21.4297 230.805C22.1172 230.326 23.0729 230.086 24.2969 230.086H25.9922V229.125C25.9922 228.521 25.8047 228.047 25.4297 227.703C25.0599 227.354 24.5182 227.18 23.8047 227.18C23.1536 227.18 22.6146 227.346 22.1875 227.68C21.7604 228.013 21.5469 228.414 21.5469 228.883L20.6094 228.875C20.6094 228.203 20.9219 227.622 21.5469 227.133C22.1719 226.638 22.9401 226.391 23.8516 226.391C24.7943 226.391 25.5365 226.628 26.0781 227.102C26.625 227.57 26.9062 228.227 26.9219 229.07V233.07C26.9219 233.888 27.0078 234.5 27.1797 234.906V235H26.1797ZM23.2422 234.328C23.8672 234.328 24.4245 234.177 24.9141 233.875C25.4089 233.573 25.7682 233.169 25.9922 232.664V230.805H24.3203C23.388 230.815 22.6589 230.987 22.1328 231.32C21.6068 231.648 21.3438 232.102 21.3438 232.68C21.3438 233.154 21.5182 233.547 21.8672 233.859C22.2214 234.172 22.6797 234.328 23.2422 234.328ZM31.7188 231.125H30.4219V235H29.4766V226.547H30.4219V230.297H31.7031L34.8047 226.547H35.9844L32.5156 230.648L36.3672 235H35.1328L31.7188 231.125ZM43.2734 226.547H44.2109V235H43.2734V228.055L38.7109 235H37.7812V226.547H38.7109V233.5L43.2734 226.547ZM51.3984 233.734L54.7578 226.547H55.9141V235H54.9766V228.062L51.7266 235H51.0625L47.75 227.906V235H46.8203V226.547H48.0469L51.3984 233.734ZM63.9766 226.547H64.9141V235H63.9766V228.055L59.4141 235H58.4844V226.547H59.4141V233.5L63.9766 226.547ZM78.9375 224.445H75.0391V235H74.0781V224.445H70.1875V223.625H78.9375V224.445ZM79.2656 230.648C79.2656 229.836 79.4219 229.104 79.7344 228.453C80.0521 227.802 80.4974 227.297 81.0703 226.938C81.6484 226.573 82.3021 226.391 83.0312 226.391C84.1562 226.391 85.0677 226.786 85.7656 227.578C86.4635 228.365 86.8125 229.409 86.8125 230.711V230.906C86.8125 231.724 86.6536 232.461 86.3359 233.117C86.0234 233.768 85.5807 234.271 85.0078 234.625C84.4349 234.979 83.7812 235.156 83.0469 235.156C81.9271 235.156 81.0156 234.763 80.3125 233.977C79.6146 233.185 79.2656 232.138 79.2656 230.836V230.648ZM80.2031 230.906C80.2031 231.917 80.4635 232.747 80.9844 233.398C81.5104 234.044 82.1979 234.367 83.0469 234.367C83.8906 234.367 84.5729 234.044 85.0938 233.398C85.6198 232.747 85.8828 231.891 85.8828 230.828V230.648C85.8828 230.003 85.763 229.411 85.5234 228.875C85.2839 228.339 84.9479 227.924 84.5156 227.633C84.0833 227.336 83.5885 227.188 83.0312 227.188C82.1979 227.188 81.5182 227.516 80.9922 228.172C80.4661 228.823 80.2031 229.677 80.2031 230.734V230.906ZM95.5469 230.859C95.5469 232.177 95.2552 233.224 94.6719 234C94.0885 234.771 93.3073 235.156 92.3281 235.156C91.1719 235.156 90.2865 234.75 89.6719 233.938V238.25H88.7422V226.547H89.6094L89.6562 227.742C90.2656 226.841 91.1484 226.391 92.3047 226.391C93.3151 226.391 94.1068 226.773 94.6797 227.539C95.2578 228.305 95.5469 229.367 95.5469 230.727V230.859ZM94.6094 230.695C94.6094 229.617 94.388 228.766 93.9453 228.141C93.5026 227.516 92.8854 227.203 92.0938 227.203C91.5208 227.203 91.0286 227.341 90.6172 227.617C90.2057 227.893 89.8906 228.294 89.6719 228.82V232.875C89.8958 233.359 90.2161 233.729 90.6328 233.984C91.0495 234.24 91.5417 234.367 92.1094 234.367C92.8958 234.367 93.5078 234.055 93.9453 233.43C94.388 232.799 94.6094 231.888 94.6094 230.695ZM102.891 227.352H98.6172V235H97.6797V226.547H102.891V227.352ZM103.703 230.648C103.703 229.836 103.859 229.104 104.172 228.453C104.49 227.802 104.935 227.297 105.508 226.938C106.086 226.573 106.74 226.391 107.469 226.391C108.594 226.391 109.505 226.786 110.203 227.578C110.901 228.365 111.25 229.409 111.25 230.711V230.906C111.25 231.724 111.091 232.461 110.773 233.117C110.461 233.768 110.018 234.271 109.445 234.625C108.872 234.979 108.219 235.156 107.484 235.156C106.365 235.156 105.453 234.763 104.75 233.977C104.052 233.185 103.703 232.138 103.703 230.836V230.648ZM104.641 230.906C104.641 231.917 104.901 232.747 105.422 233.398C105.948 234.044 106.635 234.367 107.484 234.367C108.328 234.367 109.01 234.044 109.531 233.398C110.057 232.747 110.32 231.891 110.32 230.828V230.648C110.32 230.003 110.201 229.411 109.961 228.875C109.721 228.339 109.385 227.924 108.953 227.633C108.521 227.336 108.026 227.188 107.469 227.188C106.635 227.188 105.956 227.516 105.43 228.172C104.904 228.823 104.641 229.677 104.641 230.734V230.906ZM113.289 235V226.547H116.391C117.464 226.547 118.286 226.74 118.859 227.125C119.432 227.505 119.719 228.065 119.719 228.805C119.719 229.227 119.591 229.604 119.336 229.938C119.081 230.266 118.708 230.505 118.219 230.656C118.771 230.76 119.214 230.997 119.547 231.367C119.885 231.737 120.055 232.167 120.055 232.656C120.055 233.401 119.779 233.979 119.227 234.391C118.68 234.797 117.904 235 116.898 235H113.289ZM114.219 231.109V234.219H116.93C117.633 234.219 118.174 234.083 118.555 233.812C118.935 233.542 119.125 233.151 119.125 232.641C119.125 232.172 118.935 231.799 118.555 231.523C118.174 231.247 117.633 231.109 116.93 231.109H114.219ZM114.219 230.328H116.586C118.055 230.307 118.789 229.807 118.789 228.828C118.789 228.312 118.586 227.938 118.18 227.703C117.779 227.464 117.182 227.344 116.391 227.344H114.219V230.328ZM123.172 229.617H125.609C126.234 229.617 126.781 229.732 127.25 229.961C127.724 230.185 128.081 230.497 128.32 230.898C128.565 231.299 128.688 231.766 128.688 232.297C128.688 233.115 128.406 233.771 127.844 234.266C127.286 234.755 126.531 235 125.578 235H122.242V226.547H123.172V229.617ZM123.172 230.414V234.211H125.594C126.266 234.211 126.792 234.042 127.172 233.703C127.557 233.365 127.75 232.901 127.75 232.312C127.75 231.75 127.562 231.297 127.188 230.953C126.818 230.604 126.31 230.424 125.664 230.414H123.172ZM131.555 235H130.617V226.547H131.555V235ZM138.836 233.734L142.195 226.547H143.352V235H142.414V228.062L139.164 235H138.5L135.188 227.906V235H134.258V226.547H135.484L138.836 233.734ZM151.414 226.547H152.352V235H151.414V228.055L146.852 235H145.922V226.547H146.852V233.5L151.414 226.547ZM2.71094 247.625L6.90625 257.664L11.1172 247.625H12.3984V259H11.4375V254.047L11.5156 248.969L7.28125 259H6.53906L2.32031 249.008L2.39844 254.016V259H1.4375V247.625H2.71094ZM20.3984 259C20.3047 258.734 20.2448 258.341 20.2188 257.82C19.8906 258.247 19.4714 258.578 18.9609 258.812C18.4557 259.042 17.9193 259.156 17.3516 259.156C16.5391 259.156 15.8802 258.93 15.375 258.477C14.875 258.023 14.625 257.451 14.625 256.758C14.625 255.935 14.9661 255.284 15.6484 254.805C16.3359 254.326 17.2917 254.086 18.5156 254.086H20.2109V253.125C20.2109 252.521 20.0234 252.047 19.6484 251.703C19.2786 251.354 18.737 251.18 18.0234 251.18C17.3724 251.18 16.8333 251.346 16.4062 251.68C15.9792 252.013 15.7656 252.414 15.7656 252.883L14.8281 252.875C14.8281 252.203 15.1406 251.622 15.7656 251.133C16.3906 250.638 17.1589 250.391 18.0703 250.391C19.013 250.391 19.7552 250.628 20.2969 251.102C20.8438 251.57 21.125 252.227 21.1406 253.07V257.07C21.1406 257.888 21.2266 258.5 21.3984 258.906V259H20.3984ZM17.4609 258.328C18.0859 258.328 18.6432 258.177 19.1328 257.875C19.6276 257.573 19.987 257.169 20.2109 256.664V254.805H18.5391C17.6068 254.815 16.8776 254.987 16.3516 255.32C15.8255 255.648 15.5625 256.102 15.5625 256.68C15.5625 257.154 15.737 257.547 16.0859 257.859C16.4401 258.172 16.8984 258.328 17.4609 258.328ZM30.4375 254.859C30.4375 256.177 30.1458 257.224 29.5625 258C28.9792 258.771 28.1979 259.156 27.2188 259.156C26.0625 259.156 25.1771 258.75 24.5625 257.938V262.25H23.6328V250.547H24.5L24.5469 251.742C25.1562 250.841 26.0391 250.391 27.1953 250.391C28.2057 250.391 28.9974 250.773 29.5703 251.539C30.1484 252.305 30.4375 253.367 30.4375 254.727V254.859ZM29.5 254.695C29.5 253.617 29.2786 252.766 28.8359 252.141C28.3932 251.516 27.776 251.203 26.9844 251.203C26.4115 251.203 25.9193 251.341 25.5078 251.617C25.0964 251.893 24.7812 252.294 24.5625 252.82V256.875C24.7865 257.359 25.1068 257.729 25.5234 257.984C25.9401 258.24 26.4323 258.367 27 258.367C27.7865 258.367 28.3984 258.055 28.8359 257.43C29.2786 256.799 29.5 255.888 29.5 254.695ZM34.8125 255.125H33.5156V259H32.5703V250.547H33.5156V254.297H34.7969L37.8984 250.547H39.0781L35.6094 254.648L39.4609 259H38.2266L34.8125 255.125ZM46.1484 259C46.0547 258.734 45.9948 258.341 45.9688 257.82C45.6406 258.247 45.2214 258.578 44.7109 258.812C44.2057 259.042 43.6693 259.156 43.1016 259.156C42.2891 259.156 41.6302 258.93 41.125 258.477C40.625 258.023 40.375 257.451 40.375 256.758C40.375 255.935 40.7161 255.284 41.3984 254.805C42.0859 254.326 43.0417 254.086 44.2656 254.086H45.9609V253.125C45.9609 252.521 45.7734 252.047 45.3984 251.703C45.0286 251.354 44.487 251.18 43.7734 251.18C43.1224 251.18 42.5833 251.346 42.1562 251.68C41.7292 252.013 41.5156 252.414 41.5156 252.883L40.5781 252.875C40.5781 252.203 40.8906 251.622 41.5156 251.133C42.1406 250.638 42.9089 250.391 43.8203 250.391C44.763 250.391 45.5052 250.628 46.0469 251.102C46.5938 251.57 46.875 252.227 46.8906 253.07V257.07C46.8906 257.888 46.9766 258.5 47.1484 258.906V259H46.1484ZM43.2109 258.328C43.8359 258.328 44.3932 258.177 44.8828 257.875C45.3776 257.573 45.737 257.169 45.9609 256.664V254.805H44.2891C43.3568 254.815 42.6276 254.987 42.1016 255.32C41.5755 255.648 41.3125 256.102 41.3125 256.68C41.3125 257.154 41.487 257.547 41.8359 257.859C42.1901 258.172 42.6484 258.328 43.2109 258.328ZM54.0703 257.734L57.4297 250.547H58.5859V259H57.6484V252.062L54.3984 259H53.7344L50.4219 251.906V259H49.4922V250.547H50.7188L54.0703 257.734ZM66.6484 250.547H67.5859V259H66.6484V252.055L62.0859 259H61.1562V250.547H62.0859V257.5L66.6484 250.547ZM76.2812 255.125H74.9844V259H74.0391V250.547H74.9844V254.297H76.2656L79.3672 250.547H80.5469L77.0781 254.648L80.9297 259H79.6953L76.2812 255.125ZM87.6172 259C87.5234 258.734 87.4635 258.341 87.4375 257.82C87.1094 258.247 86.6901 258.578 86.1797 258.812C85.6745 259.042 85.138 259.156 84.5703 259.156C83.7578 259.156 83.099 258.93 82.5938 258.477C82.0938 258.023 81.8438 257.451 81.8438 256.758C81.8438 255.935 82.1849 255.284 82.8672 254.805C83.5547 254.326 84.5104 254.086 85.7344 254.086H87.4297V253.125C87.4297 252.521 87.2422 252.047 86.8672 251.703C86.4974 251.354 85.9557 251.18 85.2422 251.18C84.5911 251.18 84.0521 251.346 83.625 251.68C83.1979 252.013 82.9844 252.414 82.9844 252.883L82.0469 252.875C82.0469 252.203 82.3594 251.622 82.9844 251.133C83.6094 250.638 84.3776 250.391 85.2891 250.391C86.2318 250.391 86.974 250.628 87.5156 251.102C88.0625 251.57 88.3438 252.227 88.3594 253.07V257.07C88.3594 257.888 88.4453 258.5 88.6172 258.906V259H87.6172ZM84.6797 258.328C85.3047 258.328 85.862 258.177 86.3516 257.875C86.8464 257.573 87.2057 257.169 87.4297 256.664V254.805H85.7578C84.8255 254.815 84.0964 254.987 83.5703 255.32C83.0443 255.648 82.7812 256.102 82.7812 256.68C82.7812 257.154 82.9557 257.547 83.3047 257.859C83.6589 258.172 84.1172 258.328 84.6797 258.328ZM93.1562 255.125H91.8594V259H90.9141V250.547H91.8594V254.297H93.1406L96.2422 250.547H97.4219L93.9531 254.648L97.8047 259H96.5703L93.1562 255.125ZM109.531 253.688H104.227V259H103.266V247.625H110.312V248.445H104.227V252.867H109.531V253.688ZM115.148 259.156C114.43 259.156 113.779 258.979 113.195 258.625C112.617 258.271 112.167 257.779 111.844 257.148C111.521 256.513 111.359 255.802 111.359 255.016V254.68C111.359 253.867 111.516 253.135 111.828 252.484C112.146 251.833 112.586 251.323 113.148 250.953C113.711 250.578 114.32 250.391 114.977 250.391C116.003 250.391 116.815 250.742 117.414 251.445C118.018 252.143 118.32 253.099 118.32 254.312V254.836H112.289V255.016C112.289 255.974 112.562 256.773 113.109 257.414C113.661 258.049 114.354 258.367 115.188 258.367C115.688 258.367 116.128 258.276 116.508 258.094C116.893 257.911 117.242 257.62 117.555 257.219L118.141 257.664C117.453 258.659 116.456 259.156 115.148 259.156ZM114.977 251.188C114.273 251.188 113.68 251.445 113.195 251.961C112.716 252.477 112.424 253.169 112.32 254.039H117.391V253.938C117.365 253.125 117.133 252.464 116.695 251.953C116.258 251.443 115.685 251.188 114.977 251.188ZM121.188 259H120.25V250.547H121.188V259ZM120.086 248.102C120.086 247.924 120.143 247.776 120.258 247.656C120.372 247.531 120.529 247.469 120.727 247.469C120.924 247.469 121.081 247.531 121.195 247.656C121.315 247.776 121.375 247.924 121.375 248.102C121.375 248.279 121.315 248.427 121.195 248.547C121.081 248.667 120.924 248.727 120.727 248.727C120.529 248.727 120.372 248.667 120.258 248.547C120.143 248.427 120.086 248.279 120.086 248.102ZM123.359 254.695C123.359 253.383 123.651 252.339 124.234 251.562C124.823 250.781 125.62 250.391 126.625 250.391C127.766 250.391 128.635 250.841 129.234 251.742V247H130.164V259H129.289L129.25 257.875C128.651 258.729 127.771 259.156 126.609 259.156C125.635 259.156 124.849 258.766 124.25 257.984C123.656 257.198 123.359 256.138 123.359 254.805V254.695ZM124.305 254.859C124.305 255.938 124.521 256.789 124.953 257.414C125.385 258.034 125.995 258.344 126.781 258.344C127.932 258.344 128.75 257.836 129.234 256.82V252.852C128.75 251.753 127.938 251.203 126.797 251.203C126.01 251.203 125.398 251.513 124.961 252.133C124.523 252.747 124.305 253.656 124.305 254.859ZM137.961 259C137.867 258.734 137.807 258.341 137.781 257.82C137.453 258.247 137.034 258.578 136.523 258.812C136.018 259.042 135.482 259.156 134.914 259.156C134.102 259.156 133.443 258.93 132.938 258.477C132.438 258.023 132.188 257.451 132.188 256.758C132.188 255.935 132.529 255.284 133.211 254.805C133.898 254.326 134.854 254.086 136.078 254.086H137.773V253.125C137.773 252.521 137.586 252.047 137.211 251.703C136.841 251.354 136.299 251.18 135.586 251.18C134.935 251.18 134.396 251.346 133.969 251.68C133.542 252.013 133.328 252.414 133.328 252.883L132.391 252.875C132.391 252.203 132.703 251.622 133.328 251.133C133.953 250.638 134.721 250.391 135.633 250.391C136.576 250.391 137.318 250.628 137.859 251.102C138.406 251.57 138.688 252.227 138.703 253.07V257.07C138.703 257.888 138.789 258.5 138.961 258.906V259H137.961ZM135.023 258.328C135.648 258.328 136.206 258.177 136.695 257.875C137.19 257.573 137.549 257.169 137.773 256.664V254.805H136.102C135.169 254.815 134.44 254.987 133.914 255.32C133.388 255.648 133.125 256.102 133.125 256.68C133.125 257.154 133.299 257.547 133.648 257.859C134.003 258.172 134.461 258.328 135.023 258.328ZM142.25 259H141.312V247H142.25V259ZM144.602 261.125L144.047 260.719C144.521 260.083 144.766 259.424 144.781 258.742V257.531H145.695V258.508C145.695 259.591 145.331 260.464 144.602 261.125ZM7.875 280.203C7.875 279.573 7.65365 279.076 7.21094 278.711C6.76823 278.341 5.95833 277.992 4.78125 277.664C3.60417 277.331 2.74479 276.969 2.20312 276.578C1.43229 276.026 1.04688 275.302 1.04688 274.406C1.04688 273.536 1.40365 272.831 2.11719 272.289C2.83594 271.742 3.7526 271.469 4.86719 271.469C5.6224 271.469 6.29688 271.615 6.89062 271.906C7.48958 272.198 7.95312 272.604 8.28125 273.125C8.60938 273.646 8.77344 274.227 8.77344 274.867H7.80469C7.80469 274.091 7.53906 273.469 7.00781 273C6.47656 272.526 5.76302 272.289 4.86719 272.289C3.9974 272.289 3.30469 272.484 2.78906 272.875C2.27344 273.26 2.01562 273.766 2.01562 274.391C2.01562 274.969 2.2474 275.44 2.71094 275.805C3.17448 276.169 3.91667 276.492 4.9375 276.773C5.95833 277.049 6.73177 277.339 7.25781 277.641C7.78385 277.938 8.17969 278.294 8.44531 278.711C8.71094 279.128 8.84375 279.62 8.84375 280.188C8.84375 281.083 8.48438 281.802 7.76562 282.344C7.05208 282.885 6.10938 283.156 4.9375 283.156C4.13542 283.156 3.39844 283.013 2.72656 282.727C2.0599 282.44 1.55208 282.039 1.20312 281.523C0.859375 281.008 0.6875 280.417 0.6875 279.75H1.64844C1.64844 280.552 1.94792 281.185 2.54688 281.648C3.14583 282.112 3.94271 282.344 4.9375 282.344C5.82292 282.344 6.53385 282.148 7.07031 281.758C7.60677 281.367 7.875 280.849 7.875 280.203ZM17.5 278.859C17.5 280.177 17.2083 281.224 16.625 282C16.0417 282.771 15.2604 283.156 14.2812 283.156C13.125 283.156 12.2396 282.75 11.625 281.938V286.25H10.6953V274.547H11.5625L11.6094 275.742C12.2188 274.841 13.1016 274.391 14.2578 274.391C15.2682 274.391 16.0599 274.773 16.6328 275.539C17.2109 276.305 17.5 277.367 17.5 278.727V278.859ZM16.5625 278.695C16.5625 277.617 16.3411 276.766 15.8984 276.141C15.4557 275.516 14.8385 275.203 14.0469 275.203C13.474 275.203 12.9818 275.341 12.5703 275.617C12.1589 275.893 11.8438 276.294 11.625 276.82V280.875C11.849 281.359 12.1693 281.729 12.5859 281.984C13.0026 282.24 13.4948 282.367 14.0625 282.367C14.849 282.367 15.4609 282.055 15.8984 281.43C16.3411 280.799 16.5625 279.888 16.5625 278.695ZM20.625 283H19.6875V274.547H20.625V283ZM19.5234 272.102C19.5234 271.924 19.5807 271.776 19.6953 271.656C19.8099 271.531 19.9661 271.469 20.1641 271.469C20.362 271.469 20.5182 271.531 20.6328 271.656C20.7526 271.776 20.8125 271.924 20.8125 272.102C20.8125 272.279 20.7526 272.427 20.6328 272.547C20.5182 272.667 20.362 272.727 20.1641 272.727C19.9661 272.727 19.8099 272.667 19.6953 272.547C19.5807 272.427 19.5234 272.279 19.5234 272.102ZM25.8047 281.711L28.375 274.547H29.3359L26.1797 283H25.4219L22.25 274.547H23.2109L25.8047 281.711ZM34.0391 283.156C33.3203 283.156 32.6693 282.979 32.0859 282.625C31.5078 282.271 31.0573 281.779 30.7344 281.148C30.4115 280.513 30.25 279.802 30.25 279.016V278.68C30.25 277.867 30.4062 277.135 30.7188 276.484C31.0365 275.833 31.4766 275.323 32.0391 274.953C32.6016 274.578 33.2109 274.391 33.8672 274.391C34.8932 274.391 35.7057 274.742 36.3047 275.445C36.9089 276.143 37.2109 277.099 37.2109 278.312V278.836H31.1797V279.016C31.1797 279.974 31.4531 280.773 32 281.414C32.5521 282.049 33.2448 282.367 34.0781 282.367C34.5781 282.367 35.0182 282.276 35.3984 282.094C35.7839 281.911 36.1328 281.62 36.4453 281.219L37.0312 281.664C36.3438 282.659 35.3464 283.156 34.0391 283.156ZM33.8672 275.188C33.1641 275.188 32.5703 275.445 32.0859 275.961C31.6068 276.477 31.3151 277.169 31.2109 278.039H36.2812V277.938C36.2552 277.125 36.0234 276.464 35.5859 275.953C35.1484 275.443 34.5755 275.188 33.8672 275.188ZM42.9375 275.344C42.7396 275.307 42.5286 275.289 42.3047 275.289C41.7214 275.289 41.2266 275.453 40.8203 275.781C40.4193 276.104 40.1328 276.576 39.9609 277.195V283H39.0312V274.547H39.9453L39.9609 275.891C40.4557 274.891 41.25 274.391 42.3438 274.391C42.6042 274.391 42.8099 274.424 42.9609 274.492L42.9375 275.344ZM43.2578 285.125L42.7031 284.719C43.1771 284.083 43.4219 283.424 43.4375 282.742V281.531H44.3516V282.508C44.3516 283.591 43.987 284.464 43.2578 285.125ZM59.0312 277.93C59.0312 278.977 58.849 279.896 58.4844 280.688C58.125 281.479 57.6094 282.089 56.9375 282.516C56.2656 282.943 55.4896 283.156 54.6094 283.156C53.2812 283.156 52.2083 282.682 51.3906 281.734C50.5729 280.781 50.1641 279.497 50.1641 277.883V276.711C50.1641 275.674 50.3464 274.758 50.7109 273.961C51.0807 273.159 51.6016 272.544 52.2734 272.117C52.9453 271.685 53.7188 271.469 54.5938 271.469C55.4688 271.469 56.2396 271.68 56.9062 272.102C57.5781 272.523 58.0964 273.12 58.4609 273.891C58.8255 274.661 59.0156 275.555 59.0312 276.57V277.93ZM58.0703 276.695C58.0703 275.326 57.7604 274.253 57.1406 273.477C56.5208 272.701 55.6719 272.312 54.5938 272.312C53.5365 272.312 52.6927 272.703 52.0625 273.484C51.4375 274.26 51.125 275.346 51.125 276.742V277.93C51.125 279.279 51.4375 280.349 52.0625 281.141C52.6875 281.927 53.5365 282.32 54.6094 282.32C55.6979 282.32 56.5469 281.932 57.1562 281.156C57.7656 280.375 58.0703 279.289 58.0703 277.898V276.695ZM62.2812 283H61.3438V274.547H62.2812V283ZM61.1797 272.102C61.1797 271.924 61.237 271.776 61.3516 271.656C61.4661 271.531 61.6224 271.469 61.8203 271.469C62.0182 271.469 62.1745 271.531 62.2891 271.656C62.4089 271.776 62.4688 271.924 62.4688 272.102C62.4688 272.279 62.4089 272.427 62.2891 272.547C62.1745 272.667 62.0182 272.727 61.8203 272.727C61.6224 272.727 61.4661 272.667 61.3516 272.547C61.237 272.427 61.1797 272.279 61.1797 272.102ZM66.8359 278.742L65.7656 279.773V283H64.8281V271H65.7656V278.68L66.6484 277.727L69.8828 274.547H71.0625L67.4766 278.109L71.375 283H70.2578L66.8359 278.742ZM72.1562 278.648C72.1562 277.836 72.3125 277.104 72.625 276.453C72.9427 275.802 73.388 275.297 73.9609 274.938C74.5391 274.573 75.1927 274.391 75.9219 274.391C77.0469 274.391 77.9583 274.786 78.6562 275.578C79.3542 276.365 79.7031 277.409 79.7031 278.711V278.906C79.7031 279.724 79.5443 280.461 79.2266 281.117C78.9141 281.768 78.4714 282.271 77.8984 282.625C77.3255 282.979 76.6719 283.156 75.9375 283.156C74.8177 283.156 73.9062 282.763 73.2031 281.977C72.5052 281.185 72.1562 280.138 72.1562 278.836V278.648ZM73.0938 278.906C73.0938 279.917 73.3542 280.747 73.875 281.398C74.401 282.044 75.0885 282.367 75.9375 282.367C76.7812 282.367 77.4635 282.044 77.9844 281.398C78.5104 280.747 78.7734 279.891 78.7734 278.828V278.648C78.7734 278.003 78.6536 277.411 78.4141 276.875C78.1745 276.339 77.8385 275.924 77.4062 275.633C76.974 275.336 76.4792 275.188 75.9219 275.188C75.0885 275.188 74.4089 275.516 73.8828 276.172C73.3568 276.823 73.0938 277.677 73.0938 278.734V278.906ZM86.7031 280.852C86.7031 280.388 86.5156 280.016 86.1406 279.734C85.7708 279.453 85.2109 279.234 84.4609 279.078C83.7109 278.917 83.1276 278.734 82.7109 278.531C82.2995 278.323 81.9922 278.07 81.7891 277.773C81.5911 277.477 81.4922 277.117 81.4922 276.695C81.4922 276.029 81.7708 275.479 82.3281 275.047C82.8854 274.609 83.599 274.391 84.4688 274.391C85.4115 274.391 86.1667 274.625 86.7344 275.094C87.3073 275.557 87.5938 276.164 87.5938 276.914H86.6562C86.6562 276.419 86.4479 276.008 86.0312 275.68C85.6198 275.352 85.099 275.188 84.4688 275.188C83.8542 275.188 83.3594 275.326 82.9844 275.602C82.6146 275.872 82.4297 276.227 82.4297 276.664C82.4297 277.086 82.5833 277.414 82.8906 277.648C83.2031 277.878 83.7682 278.089 84.5859 278.281C85.4089 278.474 86.0234 278.68 86.4297 278.898C86.8411 279.117 87.1458 279.38 87.3438 279.688C87.5417 279.995 87.6406 280.367 87.6406 280.805C87.6406 281.518 87.3516 282.089 86.7734 282.516C86.2005 282.943 85.4505 283.156 84.5234 283.156C83.5391 283.156 82.7396 282.919 82.125 282.445C81.5156 281.966 81.2109 281.362 81.2109 280.633H82.1484C82.1849 281.18 82.4141 281.607 82.8359 281.914C83.263 282.216 83.8255 282.367 84.5234 282.367C85.1745 282.367 85.7005 282.224 86.1016 281.938C86.5026 281.651 86.7031 281.289 86.7031 280.852ZM89.5547 285.125L89 284.719C89.474 284.083 89.7188 283.424 89.7344 282.742V281.531H90.6484V282.508C90.6484 283.591 90.2839 284.464 89.5547 285.125ZM99.9766 283.156C99.2578 283.156 98.6068 282.979 98.0234 282.625C97.4453 282.271 96.9948 281.779 96.6719 281.148C96.349 280.513 96.1875 279.802 96.1875 279.016V278.68C96.1875 277.867 96.3438 277.135 96.6562 276.484C96.974 275.833 97.4141 275.323 97.9766 274.953C98.5391 274.578 99.1484 274.391 99.8047 274.391C100.831 274.391 101.643 274.742 102.242 275.445C102.846 276.143 103.148 277.099 103.148 278.312V278.836H97.1172V279.016C97.1172 279.974 97.3906 280.773 97.9375 281.414C98.4896 282.049 99.1823 282.367 100.016 282.367C100.516 282.367 100.956 282.276 101.336 282.094C101.721 281.911 102.07 281.62 102.383 281.219L102.969 281.664C102.281 282.659 101.284 283.156 99.9766 283.156ZM99.8047 275.188C99.1016 275.188 98.5078 275.445 98.0234 275.961C97.5443 276.477 97.2526 277.169 97.1484 278.039H102.219V277.938C102.193 277.125 101.961 276.464 101.523 275.953C101.086 275.443 100.513 275.188 99.8047 275.188ZM106.016 283H105.078V271H106.016V283ZM109.234 283V275.312H107.836V274.547H109.234V273.523C109.234 272.659 109.453 271.995 109.891 271.531C110.333 271.068 110.948 270.836 111.734 270.836C112.089 270.836 112.419 270.88 112.727 270.969L112.656 271.75C112.396 271.688 112.112 271.656 111.805 271.656C111.289 271.656 110.888 271.818 110.602 272.141C110.315 272.458 110.172 272.911 110.172 273.5V274.547H112.188V275.312H110.172V283H109.234ZM117.375 278.695C117.375 277.383 117.667 276.339 118.25 275.562C118.839 274.781 119.635 274.391 120.641 274.391C121.781 274.391 122.651 274.841 123.25 275.742V271H124.18V283H123.305L123.266 281.875C122.667 282.729 121.786 283.156 120.625 283.156C119.651 283.156 118.865 282.766 118.266 281.984C117.672 281.198 117.375 280.138 117.375 278.805V278.695ZM118.32 278.859C118.32 279.938 118.536 280.789 118.969 281.414C119.401 282.034 120.01 282.344 120.797 282.344C121.948 282.344 122.766 281.836 123.25 280.82V276.852C122.766 275.753 121.953 275.203 120.812 275.203C120.026 275.203 119.414 275.513 118.977 276.133C118.539 276.747 118.32 277.656 118.32 278.859ZM129.914 283.156C129.195 283.156 128.544 282.979 127.961 282.625C127.383 282.271 126.932 281.779 126.609 281.148C126.286 280.513 126.125 279.802 126.125 279.016V278.68C126.125 277.867 126.281 277.135 126.594 276.484C126.911 275.833 127.352 275.323 127.914 274.953C128.477 274.578 129.086 274.391 129.742 274.391C130.768 274.391 131.581 274.742 132.18 275.445C132.784 276.143 133.086 277.099 133.086 278.312V278.836H127.055V279.016C127.055 279.974 127.328 280.773 127.875 281.414C128.427 282.049 129.12 282.367 129.953 282.367C130.453 282.367 130.893 282.276 131.273 282.094C131.659 281.911 132.008 281.62 132.32 281.219L132.906 281.664C132.219 282.659 131.221 283.156 129.914 283.156ZM129.742 275.188C129.039 275.188 128.445 275.445 127.961 275.961C127.482 276.477 127.19 277.169 127.086 278.039H132.156V277.938C132.13 277.125 131.898 276.464 131.461 275.953C131.023 275.443 130.451 275.188 129.742 275.188ZM138.031 282.367C138.682 282.367 139.227 282.185 139.664 281.82C140.107 281.451 140.346 280.974 140.383 280.391H141.281C141.255 280.906 141.094 281.378 140.797 281.805C140.5 282.227 140.104 282.557 139.609 282.797C139.12 283.036 138.594 283.156 138.031 283.156C136.922 283.156 136.042 282.771 135.391 282C134.745 281.229 134.422 280.193 134.422 278.891V278.609C134.422 277.776 134.568 277.039 134.859 276.398C135.151 275.758 135.568 275.263 136.109 274.914C136.656 274.565 137.294 274.391 138.023 274.391C138.951 274.391 139.714 274.667 140.312 275.219C140.917 275.771 141.24 276.497 141.281 277.398H140.383C140.341 276.737 140.102 276.203 139.664 275.797C139.232 275.391 138.685 275.188 138.023 275.188C137.18 275.188 136.523 275.492 136.055 276.102C135.591 276.711 135.359 277.565 135.359 278.664V278.938C135.359 280.016 135.591 280.857 136.055 281.461C136.523 282.065 137.182 282.367 138.031 282.367ZM142.641 278.648C142.641 277.836 142.797 277.104 143.109 276.453C143.427 275.802 143.872 275.297 144.445 274.938C145.023 274.573 145.677 274.391 146.406 274.391C147.531 274.391 148.443 274.786 149.141 275.578C149.839 276.365 150.188 277.409 150.188 278.711V278.906C150.188 279.724 150.029 280.461 149.711 281.117C149.398 281.768 148.956 282.271 148.383 282.625C147.81 282.979 147.156 283.156 146.422 283.156C145.302 283.156 144.391 282.763 143.688 281.977C142.99 281.185 142.641 280.138 142.641 278.836V278.648ZM143.578 278.906C143.578 279.917 143.839 280.747 144.359 281.398C144.885 282.044 145.573 282.367 146.422 282.367C147.266 282.367 147.948 282.044 148.469 281.398C148.995 280.747 149.258 279.891 149.258 278.828V278.648C149.258 278.003 149.138 277.411 148.898 276.875C148.659 276.339 148.323 275.924 147.891 275.633C147.458 275.336 146.964 275.188 146.406 275.188C145.573 275.188 144.893 275.516 144.367 276.172C143.841 276.823 143.578 277.677 143.578 278.734V278.906ZM156.031 275.344C155.833 275.307 155.622 275.289 155.398 275.289C154.815 275.289 154.32 275.453 153.914 275.781C153.513 276.104 153.227 276.576 153.055 277.195V283H152.125V274.547H153.039L153.055 275.891C153.549 274.891 154.344 274.391 155.438 274.391C155.698 274.391 155.904 274.424 156.055 274.492L156.031 275.344ZM156.352 285.125L155.797 284.719C156.271 284.083 156.516 283.424 156.531 282.742V281.531H157.445V282.508C157.445 283.591 157.081 284.464 156.352 285.125ZM170.156 280.203C170.156 279.573 169.935 279.076 169.492 278.711C169.049 278.341 168.24 277.992 167.062 277.664C165.885 277.331 165.026 276.969 164.484 276.578C163.714 276.026 163.328 275.302 163.328 274.406C163.328 273.536 163.685 272.831 164.398 272.289C165.117 271.742 166.034 271.469 167.148 271.469C167.904 271.469 168.578 271.615 169.172 271.906C169.771 272.198 170.234 272.604 170.562 273.125C170.891 273.646 171.055 274.227 171.055 274.867H170.086C170.086 274.091 169.82 273.469 169.289 273C168.758 272.526 168.044 272.289 167.148 272.289C166.279 272.289 165.586 272.484 165.07 272.875C164.555 273.26 164.297 273.766 164.297 274.391C164.297 274.969 164.529 275.44 164.992 275.805C165.456 276.169 166.198 276.492 167.219 276.773C168.24 277.049 169.013 277.339 169.539 277.641C170.065 277.938 170.461 278.294 170.727 278.711C170.992 279.128 171.125 279.62 171.125 280.188C171.125 281.083 170.766 281.802 170.047 282.344C169.333 282.885 168.391 283.156 167.219 283.156C166.417 283.156 165.68 283.013 165.008 282.727C164.341 282.44 163.833 282.039 163.484 281.523C163.141 281.008 162.969 280.417 162.969 279.75H163.93C163.93 280.552 164.229 281.185 164.828 281.648C165.427 282.112 166.224 282.344 167.219 282.344C168.104 282.344 168.815 282.148 169.352 281.758C169.888 281.367 170.156 280.849 170.156 280.203ZM178.32 283C178.227 282.734 178.167 282.341 178.141 281.82C177.812 282.247 177.393 282.578 176.883 282.812C176.378 283.042 175.841 283.156 175.273 283.156C174.461 283.156 173.802 282.93 173.297 282.477C172.797 282.023 172.547 281.451 172.547 280.758C172.547 279.935 172.888 279.284 173.57 278.805C174.258 278.326 175.214 278.086 176.438 278.086H178.133V277.125C178.133 276.521 177.945 276.047 177.57 275.703C177.201 275.354 176.659 275.18 175.945 275.18C175.294 275.18 174.755 275.346 174.328 275.68C173.901 276.013 173.688 276.414 173.688 276.883L172.75 276.875C172.75 276.203 173.062 275.622 173.688 275.133C174.312 274.638 175.081 274.391 175.992 274.391C176.935 274.391 177.677 274.628 178.219 275.102C178.766 275.57 179.047 276.227 179.062 277.07V281.07C179.062 281.888 179.148 282.5 179.32 282.906V283H178.32ZM175.383 282.328C176.008 282.328 176.565 282.177 177.055 281.875C177.549 281.573 177.909 281.169 178.133 280.664V278.805H176.461C175.529 278.815 174.799 278.987 174.273 279.32C173.747 279.648 173.484 280.102 173.484 280.68C173.484 281.154 173.659 281.547 174.008 281.859C174.362 282.172 174.82 282.328 175.383 282.328ZM182.453 274.547L182.484 275.992C182.802 275.471 183.198 275.076 183.672 274.805C184.146 274.529 184.669 274.391 185.242 274.391C186.148 274.391 186.823 274.646 187.266 275.156C187.708 275.667 187.932 276.432 187.938 277.453V283H187.008V277.445C187.003 276.69 186.841 276.128 186.523 275.758C186.211 275.388 185.708 275.203 185.016 275.203C184.438 275.203 183.924 275.385 183.477 275.75C183.034 276.109 182.706 276.596 182.492 277.211V283H181.562V274.547H182.453ZM2.71094 295.625L6.90625 305.664L11.1172 295.625H12.3984V307H11.4375V302.047L11.5156 296.969L7.28125 307H6.53906L2.32031 297.008L2.39844 302.016V307H1.4375V295.625H2.71094ZM20.3984 307C20.3047 306.734 20.2448 306.341 20.2188 305.82C19.8906 306.247 19.4714 306.578 18.9609 306.812C18.4557 307.042 17.9193 307.156 17.3516 307.156C16.5391 307.156 15.8802 306.93 15.375 306.477C14.875 306.023 14.625 305.451 14.625 304.758C14.625 303.935 14.9661 303.284 15.6484 302.805C16.3359 302.326 17.2917 302.086 18.5156 302.086H20.2109V301.125C20.2109 300.521 20.0234 300.047 19.6484 299.703C19.2786 299.354 18.737 299.18 18.0234 299.18C17.3724 299.18 16.8333 299.346 16.4062 299.68C15.9792 300.013 15.7656 300.414 15.7656 300.883L14.8281 300.875C14.8281 300.203 15.1406 299.622 15.7656 299.133C16.3906 298.638 17.1589 298.391 18.0703 298.391C19.013 298.391 19.7552 298.628 20.2969 299.102C20.8438 299.57 21.125 300.227 21.1406 301.07V305.07C21.1406 305.888 21.2266 306.5 21.3984 306.906V307H20.3984ZM17.4609 306.328C18.0859 306.328 18.6432 306.177 19.1328 305.875C19.6276 305.573 19.987 305.169 20.2109 304.664V302.805H18.5391C17.6068 302.815 16.8776 302.987 16.3516 303.32C15.8255 303.648 15.5625 304.102 15.5625 304.68C15.5625 305.154 15.737 305.547 16.0859 305.859C16.4401 306.172 16.8984 306.328 17.4609 306.328ZM27.5469 299.344C27.349 299.307 27.138 299.289 26.9141 299.289C26.3307 299.289 25.8359 299.453 25.4297 299.781C25.0286 300.104 24.7422 300.576 24.5703 301.195V307H23.6406V298.547H24.5547L24.5703 299.891C25.0651 298.891 25.8594 298.391 26.9531 298.391C27.2135 298.391 27.4193 298.424 27.5703 298.492L27.5469 299.344ZM32 306.367C32.651 306.367 33.1953 306.185 33.6328 305.82C34.0755 305.451 34.3151 304.974 34.3516 304.391H35.25C35.224 304.906 35.0625 305.378 34.7656 305.805C34.4688 306.227 34.0729 306.557 33.5781 306.797C33.0885 307.036 32.5625 307.156 32 307.156C30.8906 307.156 30.0104 306.771 29.3594 306C28.7135 305.229 28.3906 304.193 28.3906 302.891V302.609C28.3906 301.776 28.5365 301.039 28.8281 300.398C29.1198 299.758 29.5365 299.263 30.0781 298.914C30.625 298.565 31.263 298.391 31.9922 298.391C32.9193 298.391 33.6823 298.667 34.2812 299.219C34.8854 299.771 35.2083 300.497 35.25 301.398H34.3516C34.3099 300.737 34.0703 300.203 33.6328 299.797C33.2005 299.391 32.6536 299.188 31.9922 299.188C31.1484 299.188 30.4922 299.492 30.0234 300.102C29.5599 300.711 29.3281 301.565 29.3281 302.664V302.938C29.3281 304.016 29.5599 304.857 30.0234 305.461C30.4922 306.065 31.151 306.367 32 306.367ZM36.6094 302.648C36.6094 301.836 36.7656 301.104 37.0781 300.453C37.3958 299.802 37.8411 299.297 38.4141 298.938C38.9922 298.573 39.6458 298.391 40.375 298.391C41.5 298.391 42.4115 298.786 43.1094 299.578C43.8073 300.365 44.1562 301.409 44.1562 302.711V302.906C44.1562 303.724 43.9974 304.461 43.6797 305.117C43.3672 305.768 42.9245 306.271 42.3516 306.625C41.7786 306.979 41.125 307.156 40.3906 307.156C39.2708 307.156 38.3594 306.763 37.6562 305.977C36.9583 305.185 36.6094 304.138 36.6094 302.836V302.648ZM37.5469 302.906C37.5469 303.917 37.8073 304.747 38.3281 305.398C38.8542 306.044 39.5417 306.367 40.3906 306.367C41.2344 306.367 41.9167 306.044 42.4375 305.398C42.9635 304.747 43.2266 303.891 43.2266 302.828V302.648C43.2266 302.003 43.1068 301.411 42.8672 300.875C42.6276 300.339 42.2917 299.924 41.8594 299.633C41.4271 299.336 40.9323 299.188 40.375 299.188C39.5417 299.188 38.862 299.516 38.3359 300.172C37.8099 300.823 37.5469 301.677 37.5469 302.734V302.906Z" fill="#373737"/>
<path d="M98 54.25C110.841 54.25 121.25 43.8406 121.25 31C121.25 18.1594 110.841 7.75 98 7.75C85.1594 7.75 74.75 18.1594 74.75 31C74.75 43.8406 85.1594 54.25 98 54.25Z" stroke="black" stroke-width="4" stroke-linecap="round" stroke-linejoin="round"/>
<path d="M76.3 23.25H119.7" stroke="black" stroke-width="4" stroke-linecap="round" stroke-linejoin="round"/>
<path d="M76.3 38.75H119.7" stroke="black" stroke-width="4" stroke-linecap="round" stroke-linejoin="round"/>
<path d="M96.7083 7.75C92.3563 14.724 90.049 22.7795 90.049 31C90.049 39.2205 92.3563 47.276 96.7083 54.25" stroke="black" stroke-width="4" stroke-linecap="round" stroke-linejoin="round"/>
<path d="M99.2917 7.75C103.644 14.724 105.951 22.7795 105.951 31C105.951 39.2205 103.644 47.276 99.2917 54.25" stroke="black" stroke-width="4" stroke-linecap="round" stroke-linejoin="round"/>
</svg>
